Land_normalized_precision_landing08_filtered_grf
version=1
nRows=10
nColumns=37
inDegrees=yes
endheader
time		1_ground_force_vx		1_ground_force_vy		1_ground_force_vz		1_ground_force_px		1_ground_force_py		1_ground_force_pz		1_ground_torque_x		1_ground_torque_y		1_ground_torque_z		2_ground_force_vx		2_ground_force_vy		2_ground_force_vz		2_ground_force_px		2_ground_force_py		2_ground_force_pz		2_ground_torque_x		2_ground_torque_y		2_ground_torque_z		3_ground_force_vx		3_ground_force_vy		3_ground_force_vz		3_ground_force_px		3_ground_force_py		3_ground_force_pz		3_ground_torque_x		3_ground_torque_y		3_ground_torque_z		4_ground_force_vx		4_ground_force_vy		4_ground_force_vz		4_ground_force_px		4_ground_force_py		4_ground_force_pz		4_ground_torque_x		4_ground_torque_y		4_ground_torque_z		
1.819500		5.393986		-52.726761		-35.351210		0.083780		0.000000		0.207421		0.022553		-0.220461		-0.147810		-3.025837		-10.361755		2.835615		-0.158755		0.000000		0.287918		0.025161		0.086163		-0.023580		0.569795		0.039451		-0.084117		0.381281		1.276062		1.883957		0.009952		-0.017352		0.039029		-0.972220		-0.264216		0.311149		-0.351256		1.268347		1.871893		-0.006495		-0.020714		-0.008550		
1.822227		4.975915		-53.392719		-43.116477		0.081131		0.000000		0.184912		-0.003677		0.039793		0.032710		-5.249176		-33.374966		-6.681054		-0.177370		0.000000		0.268864		-0.229676		-1.461785		-0.293436		0.588526		0.111519		0.063899		0.381279		1.276057		1.883969		0.010582		-0.014512		0.038003		-1.007732		-0.318902		0.300522		-0.351279		1.268348		1.871909		-0.006347		-0.019219		-0.009372		
1.824955		1.981697		-27.409113		-36.015799		0.078949		0.000000		0.104247		-0.027729		0.384811		0.508148		-6.501673		-55.087932		-18.642455		-0.190385		0.000000		0.260234		-0.341728		-2.895639		-0.980010		0.607473		0.147729		0.205755		0.381275		1.276046		1.883975		0.010112		-0.009810		0.035823		-1.039285		-0.374860		0.235195		-0.351308		1.268346		1.871941		-0.006089		-0.017054		-0.010799		
1.827682		-4.221658		35.515387		-6.482307		0.122055		0.000000		0.340027		-0.084012		0.709820		-0.119513		-5.608182		-64.984791		-29.348941		-0.201965		0.000000		0.253242		-0.314952		-3.649975		-1.648578		0.602119		0.146090		0.310642		0.381268		1.276032		1.883980		0.008377		-0.004608		0.032961		-1.068824		-0.426208		0.131974		-0.351340		1.268343		1.871989		-0.005722		-0.014827		-0.012488		
1.830409		-13.546325		139.829056		49.254401		0.090599		0.000000		0.250883		-0.203915		2.104429		0.740513		-1.549135		-50.730928		-33.299250		-0.222350		0.000000		0.242071		-0.086127		-2.815855		-1.847771		0.554354		0.113910		0.357385		0.381260		1.276016		1.883989		0.005636		-0.000221		0.030008		-1.096827		-0.467965		0.019151		-0.351370		1.268341		1.872046		-0.005321		-0.013126		-0.014001		
1.833136		-25.121330		282.943109		129.390685		0.085822		0.000000		0.232737		-0.283978		3.198124		1.462262		6.207933		-0.800022		-24.085943		-0.283505		0.000000		0.356518		-1.146449		-0.079049		0.951062		0.459300		0.063230		0.333655		0.381252		1.275998		1.884007		0.002510		0.002436		0.027522		-1.121574		-0.497049		-0.071146		-0.351397		1.268342		1.872109		-0.005042		-0.012328		-0.014934		
1.835864		-37.352069		454.118894		224.691623		0.083693		0.000000		0.224476		-0.366926		4.460803		2.207088		17.243851		90.949418		3.699456		-0.150822		0.000000		0.261209		0.524509		2.781340		0.123603		0.330867		0.008210		0.236816		0.381244		1.275981		1.884035		-0.000167		0.003042		0.025967		-1.140229		-0.514142		-0.110065		-0.351418		1.268347		1.872172		-0.005113		-0.012528		-0.015071		
1.838591		-48.465272		637.924053		319.909630		0.082378		0.000000		0.220203		-0.459332		6.045991		3.031973		30.029767		222.049911		52.462019		-0.169730		0.000000		0.253964		1.479078		10.938838		2.585376		0.199560		-0.038934		0.073364		0.381235		1.275967		1.884074		-0.001611		0.001848		0.025646		-1.150188		-0.524059		-0.079616		-0.351434		1.268356		1.872229		-0.005726		-0.013570		-0.014472		
1.841318		-57.303817		819.258053		397.515301		0.081584		0.000000		0.218528		-0.574545		8.214619		3.985690		42.074265		379.900907		119.781251		-0.177015		0.000000		0.248247		2.293884		20.714022		6.531670		0.102266		-0.071151		-0.139240		0.381225		1.275956		1.884123		-0.001332		-0.000463		0.026624		-1.149768		-0.534326		0.020911		-0.351447		1.268367		1.872278		-0.006924		-0.015157		-0.013440		
1.844045		-64.074037		987.758468		443.672441		0.081342		0.000000		0.218910		-0.730058		11.254810		5.055101		50.568922		543.729597		197.566361		-0.180075		0.000000		0.242656		2.897265		31.152703		11.319591		0.066572		-0.087673		-0.370723		0.381210		1.275948		1.884181		0.000703		-0.003012		0.028685		-1.137803		-0.551687		0.171336		-0.351459		1.268378		1.872319		-0.008500		-0.016965		-0.012362		
